<svg width="661" height="795" viewBox="0 0 661 795" fill="none" xmlns="http://www.w3.org/2000/svg">
<path d="M328.5 623.07V417.07C350 427.07 342.5 424.57 369 435.57C395.5 446.57 409.333 448.737 422.5 452.07C423 469.237 420.4 511.87 406 545.07C391.6 578.27 348.333 610.904 328.5 623.07Z" fill="#E56E1E"/>
<path d="M328 623.07V417.07C306.513 427.07 314.008 424.57 287.524 435.57C261.04 446.57 247.215 448.737 234.057 452.07C233.557 469.237 236.155 511.87 250.547 545.07C264.938 578.27 308.179 610.904 328 623.07Z" fill="#F5B345"/>
<path d="M328 794.57V646.07C356.333 648.904 431.5 627.07 468 588.07C504.5 549.07 521 484.57 520 466.07L608.5 447.07L607 496.07L661 523.57L631 612.07L570.5 599.57C565.167 607.737 554.4 624.37 554 625.57C553.6 626.77 540.167 642.737 533.5 650.57L561 705.57L486 758.57L441 713.07C434.333 715.737 420.3 721.37 417.5 722.57C414.7 723.77 393.667 729.737 383.5 732.57L374 794.57H328Z" fill="#191F2B"/>
<path d="M327.5 646.641V646.07C340.374 647.483 357.032 649.428 327.5 646.641V794.57H280.5L271.5 733.07C261.167 730.57 240 725.27 238 724.07C236 722.87 220.834 716.904 213.5 714.07L169.5 759.57C144.834 742.237 95.2004 706.97 94.0004 704.57C92.8004 702.17 111.167 667.57 120.5 650.57C113.667 641.904 99.2005 623.67 96.0005 620.07C92.8005 616.47 86.3338 605.904 83.5005 601.07C64.5005 604.57 26.2005 611.47 25.0005 611.07C23.8005 610.67 111.167 564.904 155.001 542.07C166.334 560.237 195.8 600.27 223 615.07C257 633.57 274.5 641.57 321.5 646.07C323.684 646.279 325.68 646.469 327.5 646.641Z" fill="#313C50"/>
<path d="M328 254.953V345.453L321.5 345.451L49.0006 357.453C40.9578 317.06 44.2825 274.562 54.0363 234.548C63.7901 194.534 82.1752 157.137 107.903 124.976C133.632 92.815 166.081 66.669 202.978 48.3692C239.875 30.0694 280.327 20.0586 321.5 19.0381C323.668 18.9844 325.834 18.9556 328 18.9518C328 18.4531 328 102.453 328 102.453V254.953Z" fill="#F8B54A"/>
<path d="M327.837 254.954L327.775 345.455L334.275 345.458L606.769 357.646C614.839 317.258 611.543 274.758 601.817 234.737C592.09 194.716 573.731 157.305 548.024 125.127C522.318 92.948 489.886 66.779 453.001 48.4542C416.117 30.129 375.671 20.0904 334.498 19.0418C332.331 18.9866 330.164 18.9563 327.999 18.951C327.998 18.4523 327.941 102.453 327.941 102.453L327.837 254.954Z" fill="#ED972A"/>
<path d="M328 378.57V320.57L618.5 322.07C623.667 322.237 636.5 325.07 646.5 335.07C656.5 345.07 657 368.237 656 378.57H328Z" fill="#E56E1E"/>
<path d="M328 378.07V320.07L37.8163 321.57C32.6553 321.737 19.8359 324.57 9.84679 334.57C-0.142313 344.57 -0.641763 367.737 0.357138 378.07H328Z" fill="#EF9131"/>
<path d="M474.5 56.57C473.7 54.1703 446.5 39.5703 433 32.5703V36.0703V138.07C434.5 143.237 441 153.67 455 154.07C469 154.47 475.167 140.57 476.5 133.57C476.167 108.904 475.3 58.97 474.5 56.57Z" fill="#E5741C"/>
<path d="M180.999 56.071C181.799 53.6706 209 39.0704 222.5 32.0703V35.5704V137.572C221 142.738 214.5 153.172 200.5 153.572C186.5 153.972 180.333 140.072 178.999 133.072C179.333 108.405 180.199 58.471 180.999 56.071Z" fill="#F19333"/>
<path d="M381.5 114.57H328V0.0699154H368C370.667 -0.0966846 376.5 0.269915 378.5 3.06992C380.5 5.86992 381 8.90332 381 10.0699L381.5 114.57Z" fill="#E66F21"/>
<path d="M381.5 114.57H328V0.0699154H368C370.667 -0.0966846 376.5 0.269915 378.5 3.06992C380.5 5.86992 381 8.90332 381 10.0699L381.5 114.57Z" fill="#E66F21"/>
<path d="M274.502 114.6H328V0.104095H288.001C285.335 -0.0625048 279.502 0.304096 277.502 3.104C275.502 5.9039 275.002 8.9372 275.002 10.1038L274.502 114.6Z" fill="#F19333"/>
</svg>
