<svg width="1701" height="1342" viewBox="0 0 1701 1342" fill="none" xmlns="http://www.w3.org/2000/svg">
<path d="M848.5 667.07V461.07C870 471.07 862.5 468.57 889 479.57C915.5 490.57 929.333 492.736 942.5 496.07C943 513.236 940.4 555.87 926 589.07C911.6 622.27 868.333 654.903 848.5 667.07Z" fill="#E56E1E"/>
<path d="M847.742 667.07V461.07C826.314 471.07 833.789 468.57 807.378 479.57C780.967 490.57 767.18 492.736 754.057 496.07C753.559 513.236 756.15 555.87 770.502 589.07C784.853 622.27 827.975 654.903 847.742 667.07Z" fill="#F5B345"/>
<path d="M848 838.57V690.07C876.333 692.903 951.5 671.07 988 632.07C1024.5 593.07 1041 528.57 1040 510.07L1128.5 491.07L1127 540.07L1181 567.57L1151 656.07L1090.5 643.57C1085.17 651.736 1074.4 668.37 1074 669.57C1073.6 670.77 1060.17 686.736 1053.5 694.57L1081 749.57L1006 802.57L961 757.07C954.333 759.736 940.3 765.37 937.5 766.57C934.7 767.77 913.667 773.736 903.5 776.57L894 838.57H848Z" fill="#ffffff"/>
<path d="M847.5 690.641V690.07C860.374 691.483 877.032 693.428 847.5 690.641V838.57H800.5L791.5 777.07C781.167 774.57 760 769.27 758 768.07C756 766.87 740.834 760.903 733.5 758.07L689.5 803.57C664.834 786.236 615.2 750.97 614 748.57C612.8 746.17 631.167 711.57 640.5 694.57C633.667 685.903 619.201 667.67 616.001 664.07C612.801 660.47 606.334 649.903 603.501 645.07C584.501 648.57 546.201 655.47 545.001 655.07C543.801 654.67 631.167 608.903 675.001 586.07C686.334 604.236 715.8 644.27 743 659.07C777 677.57 794.5 685.57 841.5 690.07C843.684 690.279 845.68 690.469 847.5 690.641Z" fill="#f2f2f2"/>
<path d="M848 298.953L848 389.453L841.5 389.451L569 401.453C560.958 361.06 564.282 318.562 574.036 278.548C583.79 238.534 602.175 201.137 627.903 168.976C653.632 136.815 686.081 110.669 722.978 92.3692C759.875 74.0694 800.327 64.0586 841.5 63.0381C843.668 62.9844 845.834 62.9556 848 62.9518C848 62.4531 848 146.453 848 146.453L848 298.953Z" fill="#F8B54A"/>
<path d="M847.837 298.955L847.775 389.455L854.275 389.458L1126.77 401.646C1134.84 361.259 1131.54 318.758 1121.82 278.737C1112.09 238.716 1093.73 201.306 1068.02 169.127C1042.32 136.949 1009.89 110.78 973.001 92.4547C936.117 74.1295 895.671 64.0909 854.498 63.0423C852.331 62.9871 850.164 62.9568 847.999 62.9515C847.998 62.4528 847.941 146.453 847.941 146.453L847.837 298.955Z" fill="#ED972A"/>
<path d="M848 422.57V364.57L1138.5 366.07C1143.67 366.236 1156.5 369.07 1166.5 379.07C1176.5 389.07 1177 412.236 1176 422.57H848Z" fill="#E56E1E"/>
<path d="M848.357 422.07V364.07L557.857 365.57C552.691 365.736 539.857 368.57 529.857 378.57C519.857 388.57 519.357 411.736 520.357 422.07H848.357Z" fill="#EF9131"/>
<path d="M994.5 100.57C993.7 98.1698 966.5 83.5698 953 76.5698V80.0698V182.07C954.5 187.236 961 197.67 975 198.07C989 198.47 995.167 184.57 996.5 177.57C996.167 152.903 995.3 102.97 994.5 100.57Z" fill="#E5741C"/>
<path d="M700.999 100.07C701.799 97.6701 729 83.0699 742.5 76.0698V79.5699V181.571C741 186.738 734.5 197.171 720.5 197.571C706.5 197.971 700.333 184.071 698.999 177.071C699.333 152.404 700.199 102.47 700.999 100.07Z" fill="#F19333"/>
<path d="M901.5 158.57H848V44.0699H888C890.667 43.9033 896.5 44.2699 898.5 47.0699C900.5 49.8699 901 52.9033 901 54.0699L901.5 158.57Z" fill="#E66F21"/>
<path d="M901.5 158.57H848V44.0699H888C890.667 43.9033 896.5 44.2699 898.5 47.0699C900.5 49.8699 901 52.9033 901 54.0699L901.5 158.57Z" fill="#E66F21"/>
<path d="M794.502 158.6H848V44.1036H808.001C805.335 43.937 799.502 44.3036 797.502 47.1035C795.502 49.9034 795.002 52.9367 795.002 54.1033L794.502 158.6Z" fill="#F19333"/>
<path d="M81.3996 1056.95L75.3936 1108H49.9396L66.0986 1002.89L108.713 1063.96L151.47 1002.89L167.629 1108H142.175L136.169 1056.95L108.713 1098.7L81.3996 1056.95ZM198.749 1088.69L200.465 1070.25H250.086L251.659 1088.69H198.749ZM224.918 1044.65L210.904 1076.97L212.048 1082.26L199.607 1108H172.294L224.918 1001.61L277.685 1108H250.229L238.217 1083.26L239.075 1077.11L224.918 1044.65ZM268.11 1029.49V1007.9H347.332V1029.49H319.733V1108H295.566V1029.49H268.11ZM371.033 1057.95C371.033 1063.86 372.177 1069.1 374.465 1073.68C376.848 1078.16 380.137 1081.69 384.332 1084.26C388.622 1086.84 393.627 1088.12 399.347 1088.12C404.971 1088.12 409.881 1086.84 414.076 1084.26C418.366 1081.69 421.655 1078.16 423.943 1073.68C426.326 1069.1 427.518 1063.86 427.518 1057.95C427.518 1052.04 426.374 1046.84 424.086 1042.36C421.798 1037.79 418.556 1034.21 414.362 1031.64C410.167 1029.06 405.162 1027.78 399.347 1027.78C393.627 1027.78 388.622 1029.06 384.332 1031.64C380.137 1034.21 376.848 1037.79 374.465 1042.36C372.177 1046.84 371.033 1052.04 371.033 1057.95ZM345.436 1057.95C345.436 1050.23 346.77 1043.17 349.44 1036.79C352.204 1030.4 356.018 1024.87 360.88 1020.2C365.742 1015.53 371.462 1011.95 378.04 1009.47C384.618 1006.9 391.72 1005.61 399.347 1005.61C407.069 1005.61 414.171 1006.9 420.654 1009.47C427.232 1011.95 432.952 1015.53 437.814 1020.2C442.676 1024.87 446.441 1030.4 449.111 1036.79C451.78 1043.17 453.115 1050.23 453.115 1057.95C453.115 1065.67 451.78 1072.77 449.111 1079.26C446.537 1085.74 442.819 1091.36 437.957 1096.13C433.19 1100.9 427.518 1104.62 420.94 1107.28C414.362 1109.86 407.164 1111.15 399.347 1111.15C391.434 1111.15 384.189 1109.86 377.611 1107.28C371.033 1104.62 365.313 1100.9 360.451 1096.13C355.684 1091.36 351.966 1085.74 349.297 1079.26C346.723 1072.77 345.436 1065.67 345.436 1057.95ZM537.669 1007.9H560.978V1113.01L491.766 1051.66V1108H468.6V1002.89L537.669 1064.24V1007.9ZM638.333 1007.9H666.075L631.04 1067.24V1108H606.444V1067.39L571.409 1007.9H599.151L618.742 1045.51L638.333 1007.9Z" fill="#E66F21"/>
<path d="M730.42 1072.82C732.422 1076.44 734.662 1079.59 737.141 1082.26C739.715 1084.93 742.479 1086.98 745.435 1088.41C748.485 1089.84 751.679 1090.55 755.016 1090.55C758.543 1090.55 761.451 1089.7 763.739 1087.98C766.027 1086.17 767.171 1083.74 767.171 1080.69C767.171 1078.11 766.503 1076.06 765.169 1074.54C763.834 1072.92 761.689 1071.39 758.734 1069.96C755.778 1068.53 751.87 1066.91 747.008 1065.1C744.624 1064.24 741.86 1063.05 738.714 1061.52C735.663 1060 732.755 1058.05 729.991 1055.66C727.226 1053.18 724.938 1050.23 723.127 1046.8C721.315 1043.27 720.41 1039.03 720.41 1034.07C720.41 1028.16 721.935 1023.06 724.986 1018.77C728.132 1014.48 732.326 1011.24 737.57 1009.04C742.908 1006.76 748.819 1005.61 755.302 1005.61C761.975 1005.61 767.743 1006.71 772.605 1008.9C777.562 1011.09 781.661 1013.86 784.903 1017.19C788.144 1020.53 790.623 1023.92 792.339 1027.35L773.892 1037.64C772.462 1035.26 770.793 1033.21 768.887 1031.49C767.075 1029.68 765.026 1028.3 762.738 1027.35C760.545 1026.3 758.162 1025.77 755.588 1025.77C752.156 1025.77 749.534 1026.54 747.723 1028.06C745.911 1029.49 745.006 1031.3 745.006 1033.5C745.006 1035.78 745.864 1037.79 747.58 1039.5C749.391 1041.22 751.917 1042.79 755.159 1044.22C758.495 1045.65 762.499 1047.18 767.171 1048.8C770.698 1050.13 773.987 1051.71 777.038 1053.52C780.088 1055.23 782.758 1057.33 785.046 1059.81C787.429 1062.29 789.288 1065.15 790.623 1068.39C791.957 1071.63 792.625 1075.35 792.625 1079.54C792.625 1084.6 791.576 1089.12 789.479 1093.13C787.477 1097.04 784.712 1100.33 781.185 1102.99C777.753 1105.66 773.796 1107.67 769.316 1109C764.93 1110.43 760.402 1111.15 755.731 1111.15C749.248 1111.15 743.194 1110 737.57 1107.71C732.04 1105.33 727.226 1102.14 723.127 1098.13C719.027 1094.13 715.834 1089.74 713.546 1084.98L730.42 1072.82ZM824.8 1108V1088.12H875.279V1108H824.8ZM824.8 1027.78V1007.9H875.279V1027.78H824.8ZM824.8 1065.1V1045.65H872.419V1065.1H824.8ZM808.784 1007.9H831.95V1108H808.784V1007.9ZM919.972 1062.67H944.997L976.314 1108H948L919.972 1062.67ZM894.947 1007.9H919.114V1108H894.947V1007.9ZM910.105 1028.35V1007.9H931.412C939.992 1007.9 947.142 1009.28 952.862 1012.05C958.582 1014.81 962.919 1018.67 965.875 1023.63C968.83 1028.49 970.308 1034.16 970.308 1040.65C970.308 1047.03 968.83 1052.71 965.875 1057.66C962.919 1062.53 958.582 1066.34 952.862 1069.1C947.142 1071.87 939.992 1073.25 931.412 1073.25H910.105V1054.52H929.696C932.937 1054.52 935.702 1054.04 937.99 1053.09C940.373 1052.04 942.184 1050.56 943.424 1048.65C944.663 1046.65 945.283 1044.27 945.283 1041.5C945.283 1038.74 944.663 1036.4 943.424 1034.5C942.184 1032.5 940.373 1030.97 937.99 1029.92C935.702 1028.87 932.937 1028.35 929.696 1028.35H910.105ZM1029.43 1067.67L1053.89 1007.9H1082.2L1029.43 1114.29L976.809 1007.9H1004.98L1029.43 1067.67ZM1092.69 1007.9H1117.28V1108H1092.69V1007.9ZM1159.09 1057.95C1159.09 1064.05 1160.47 1069.34 1163.23 1073.82C1166 1078.21 1169.62 1081.54 1174.1 1083.83C1178.68 1086.12 1183.68 1087.26 1189.12 1087.26C1193.88 1087.26 1198.08 1086.65 1201.7 1085.41C1205.32 1084.17 1208.56 1082.55 1211.42 1080.54C1214.28 1078.54 1216.81 1076.4 1219 1074.11V1100.13C1215 1103.28 1210.61 1105.76 1205.85 1107.57C1201.08 1109.38 1195.03 1110.29 1187.69 1110.29C1179.68 1110.29 1172.29 1109.05 1165.52 1106.57C1158.75 1104.09 1152.94 1100.52 1148.07 1095.84C1143.21 1091.17 1139.45 1085.64 1136.78 1079.26C1134.11 1072.87 1132.77 1065.77 1132.77 1057.95C1132.77 1050.13 1134.11 1043.03 1136.78 1036.64C1139.45 1030.26 1143.21 1024.73 1148.07 1020.05C1152.94 1015.38 1158.75 1011.81 1165.52 1009.33C1172.29 1006.85 1179.68 1005.61 1187.69 1005.61C1195.03 1005.61 1201.08 1006.52 1205.85 1008.33C1210.61 1010.14 1215 1012.62 1219 1015.76V1041.79C1216.81 1039.5 1214.28 1037.36 1211.42 1035.36C1208.56 1033.26 1205.32 1031.64 1201.7 1030.49C1198.08 1029.25 1193.88 1028.63 1189.12 1028.63C1183.68 1028.63 1178.68 1029.78 1174.1 1032.07C1169.62 1034.35 1166 1037.69 1163.23 1042.08C1160.47 1046.46 1159.09 1051.75 1159.09 1057.95ZM1179.11 1101.14L1194.84 1101.56L1182.54 1119.01C1183.3 1118.82 1184.11 1118.68 1184.97 1118.58C1185.83 1118.58 1186.73 1118.58 1187.69 1118.58C1189.59 1118.58 1191.55 1119.06 1193.55 1120.01C1195.65 1121.06 1197.36 1122.59 1198.7 1124.59C1200.13 1126.69 1200.84 1129.31 1200.84 1132.45C1200.84 1135.89 1199.89 1138.75 1197.98 1141.03C1196.07 1143.42 1193.69 1145.18 1190.83 1146.32C1187.97 1147.47 1185.06 1148.04 1182.11 1148.04C1178.1 1148.04 1174.48 1147.61 1171.24 1146.75C1168.09 1145.99 1164.85 1144.56 1161.52 1142.46L1167.95 1132.6C1169.76 1133.93 1171.72 1134.84 1173.81 1135.31C1176.01 1135.89 1177.82 1136.17 1179.25 1136.17C1181.73 1136.17 1183.63 1135.74 1184.97 1134.88C1186.3 1134.12 1186.97 1132.88 1186.97 1131.17C1186.97 1129.35 1186.06 1128.12 1184.25 1127.45C1182.54 1126.88 1180.58 1126.59 1178.39 1126.59C1177.72 1126.59 1176.2 1126.69 1173.81 1126.88C1171.43 1127.16 1169 1127.83 1166.52 1128.88L1179.11 1101.14ZM1258.64 1057.95C1258.64 1063.86 1259.78 1069.1 1262.07 1073.68C1264.45 1078.16 1267.74 1081.69 1271.94 1084.26C1276.23 1086.84 1281.23 1088.12 1286.95 1088.12C1292.58 1088.12 1297.49 1086.84 1301.68 1084.26C1305.97 1081.69 1309.26 1078.16 1311.55 1073.68C1313.93 1069.1 1315.12 1063.86 1315.12 1057.95C1315.12 1052.04 1313.98 1046.84 1311.69 1042.36C1309.4 1037.79 1306.16 1034.21 1301.97 1031.64C1297.77 1029.06 1292.77 1027.78 1286.95 1027.78C1281.23 1027.78 1276.23 1029.06 1271.94 1031.64C1267.74 1034.21 1264.45 1037.79 1262.07 1042.36C1259.78 1046.84 1258.64 1052.04 1258.64 1057.95ZM1233.04 1057.95C1233.04 1050.23 1234.38 1043.17 1237.05 1036.79C1239.81 1030.4 1243.62 1024.87 1248.49 1020.2C1253.35 1015.53 1259.07 1011.95 1265.65 1009.47C1272.22 1006.9 1279.33 1005.61 1286.95 1005.61C1294.67 1005.61 1301.78 1006.9 1308.26 1009.47C1314.84 1011.95 1320.56 1015.53 1325.42 1020.2C1330.28 1024.87 1334.05 1030.4 1336.72 1036.79C1339.39 1043.17 1340.72 1050.23 1340.72 1057.95C1340.72 1065.67 1339.39 1072.77 1336.72 1079.26C1334.14 1085.74 1330.42 1091.36 1325.56 1096.13C1320.8 1100.9 1315.12 1104.62 1308.55 1107.28C1301.97 1109.86 1294.77 1111.15 1286.95 1111.15C1279.04 1111.15 1271.79 1109.86 1265.22 1107.28C1258.64 1104.62 1252.92 1100.9 1248.06 1096.13C1243.29 1091.36 1239.57 1085.74 1236.9 1079.26C1234.33 1072.77 1233.04 1065.67 1233.04 1057.95ZM1367.22 1072.82C1369.22 1076.44 1371.46 1079.59 1373.94 1082.26C1376.51 1084.93 1379.28 1086.98 1382.23 1088.41C1385.28 1089.84 1388.48 1090.55 1391.81 1090.55C1395.34 1090.55 1398.25 1089.7 1400.54 1087.98C1402.82 1086.17 1403.97 1083.74 1403.97 1080.69C1403.97 1078.11 1403.3 1076.06 1401.97 1074.54C1400.63 1072.92 1398.49 1071.39 1395.53 1069.96C1392.58 1068.53 1388.67 1066.91 1383.8 1065.1C1381.42 1064.24 1378.66 1063.05 1375.51 1061.52C1372.46 1060 1369.55 1058.05 1366.79 1055.66C1364.02 1053.18 1361.73 1050.23 1359.92 1046.8C1358.11 1043.27 1357.21 1039.03 1357.21 1034.07C1357.21 1028.16 1358.73 1023.06 1361.78 1018.77C1364.93 1014.48 1369.12 1011.24 1374.37 1009.04C1379.71 1006.76 1385.62 1005.61 1392.1 1005.61C1398.77 1005.61 1404.54 1006.71 1409.4 1008.9C1414.36 1011.09 1418.46 1013.86 1421.7 1017.19C1424.94 1020.53 1427.42 1023.92 1429.14 1027.35L1410.69 1037.64C1409.26 1035.26 1407.59 1033.21 1405.68 1031.49C1403.87 1029.68 1401.82 1028.3 1399.53 1027.35C1397.34 1026.3 1394.96 1025.77 1392.38 1025.77C1388.95 1025.77 1386.33 1026.54 1384.52 1028.06C1382.71 1029.49 1381.8 1031.3 1381.8 1033.5C1381.8 1035.78 1382.66 1037.79 1384.38 1039.5C1386.19 1041.22 1388.71 1042.79 1391.96 1044.22C1395.29 1045.65 1399.3 1047.18 1403.97 1048.8C1407.49 1050.13 1410.78 1051.71 1413.83 1053.52C1416.89 1055.23 1419.55 1057.33 1421.84 1059.81C1424.23 1062.29 1426.08 1065.15 1427.42 1068.39C1428.75 1071.63 1429.42 1075.35 1429.42 1079.54C1429.42 1084.6 1428.37 1089.12 1426.28 1093.13C1424.27 1097.04 1421.51 1100.33 1417.98 1102.99C1414.55 1105.66 1410.59 1107.67 1406.11 1109C1401.73 1110.43 1397.2 1111.15 1392.53 1111.15C1386.04 1111.15 1379.99 1110 1374.37 1107.71C1368.84 1105.33 1364.02 1102.14 1359.92 1098.13C1355.82 1094.13 1352.63 1089.74 1350.34 1084.98L1367.22 1072.82Z" fill="#ffffff"/>
<path d="M1504.47 1108V1088.12H1554.95V1108H1504.47ZM1504.47 1027.78V1007.9H1554.95V1027.78H1504.47ZM1504.47 1065.1V1045.65H1552.09V1065.1H1504.47ZM1488.45 1007.9H1511.62V1108H1488.45V1007.9ZM1573.61 1098.28C1573.61 1094.65 1574.9 1091.55 1577.48 1088.98C1580.05 1086.41 1583.24 1085.12 1587.06 1085.12C1591.06 1085.12 1594.3 1086.41 1596.78 1088.98C1599.26 1091.55 1600.5 1094.65 1600.5 1098.28C1600.5 1101.9 1599.26 1105 1596.78 1107.57C1594.3 1110.15 1591.06 1111.43 1587.06 1111.43C1583.24 1111.43 1580.05 1110.15 1577.48 1107.57C1574.9 1105 1573.61 1101.9 1573.61 1098.28ZM1620.7 1007.9H1645.3V1108H1620.7V1007.9Z" fill="#f2f2f2"/>
<path d="M140.229 1286.03L160.005 1238.8H173.061L140.229 1309.74L107.397 1238.8H120.453L140.229 1286.03ZM187.887 1306V1296.02H221.775V1306H187.887ZM187.887 1248.78V1238.8H221.775V1248.78H187.887ZM187.887 1274.9V1265.1H219.855V1274.9H187.887ZM180.879 1238.8H192.015V1306H180.879V1238.8ZM284.778 1238.8H295.914V1309.36L246.858 1260.88V1306H235.722V1235.44L284.778 1283.92V1238.8ZM310.816 1238.8H322.336V1306H310.816V1238.8ZM332.512 1306H317.824V1295.34H332.224C335.552 1295.34 338.624 1294.86 341.44 1293.9C344.256 1292.94 346.688 1291.5 348.736 1289.58C350.848 1287.66 352.48 1285.26 353.632 1282.38C354.848 1279.5 355.456 1276.18 355.456 1272.4C355.456 1268.62 354.848 1265.3 353.632 1262.42C352.48 1259.54 350.848 1257.14 348.736 1255.22C346.688 1253.3 344.256 1251.86 341.44 1250.9C338.624 1249.94 335.552 1249.46 332.224 1249.46H317.824V1238.8H332.512C339.36 1238.8 345.376 1240.21 350.56 1243.02C355.744 1245.78 359.776 1249.68 362.656 1254.74C365.6 1259.73 367.072 1265.62 367.072 1272.4C367.072 1279.18 365.6 1285.1 362.656 1290.16C359.776 1295.15 355.744 1299.06 350.56 1301.87C345.376 1304.62 339.36 1306 332.512 1306ZM383.286 1288.72L385.398 1279.12H416.598L418.806 1288.72H383.286ZM400.854 1257.81L390.294 1282.48L390.102 1284.98L380.79 1306H368.022L400.854 1235.06L433.686 1306H420.918L411.798 1285.55L411.51 1282.77L400.854 1257.81ZM477.293 1306V1296.02H511.181V1306H477.293ZM477.293 1248.78V1238.8H511.181V1248.78H477.293ZM477.293 1274.9V1265.1H509.261V1274.9H477.293ZM470.285 1238.8H481.421V1306H470.285V1238.8ZM562.262 1272.4C562.262 1277.14 563.318 1281.3 565.43 1284.88C567.606 1288.46 570.422 1291.25 573.878 1293.23C577.398 1295.15 581.206 1296.11 585.302 1296.11C588.502 1296.11 591.382 1295.7 593.942 1294.86C596.502 1294.03 598.806 1292.91 600.854 1291.5C602.966 1290.03 604.79 1288.4 606.326 1286.61V1300.05C603.51 1302.35 600.47 1304.11 597.206 1305.33C593.942 1306.54 589.846 1307.15 584.918 1307.15C579.99 1307.15 575.382 1306.32 571.094 1304.66C566.87 1302.99 563.19 1300.59 560.054 1297.46C556.918 1294.32 554.454 1290.64 552.662 1286.42C550.934 1282.13 550.07 1277.46 550.07 1272.4C550.07 1267.34 550.934 1262.7 552.662 1258.48C554.454 1254.19 556.918 1250.48 560.054 1247.34C563.19 1244.21 566.87 1241.81 571.094 1240.14C575.382 1238.48 579.99 1237.65 584.918 1237.65C589.846 1237.65 593.942 1238.26 597.206 1239.47C600.47 1240.69 603.51 1242.45 606.326 1244.75V1258.19C604.79 1256.4 602.966 1254.8 600.854 1253.39C598.806 1251.92 596.502 1250.77 593.942 1249.94C591.382 1249.1 588.502 1248.69 585.302 1248.69C581.206 1248.69 577.398 1249.68 573.878 1251.66C570.422 1253.58 567.606 1256.34 565.43 1259.92C563.318 1263.44 562.262 1267.6 562.262 1272.4ZM628.445 1272.4C628.445 1277.01 629.405 1281.14 631.325 1284.78C633.309 1288.37 636.029 1291.18 639.485 1293.23C642.941 1295.28 646.877 1296.3 651.293 1296.3C655.773 1296.3 659.709 1295.28 663.101 1293.23C666.557 1291.18 669.245 1288.37 671.165 1284.78C673.149 1281.14 674.141 1277.01 674.141 1272.4C674.141 1267.79 673.181 1263.7 671.261 1260.11C669.341 1256.46 666.653 1253.62 663.197 1251.57C659.805 1249.52 655.837 1248.5 651.293 1248.5C646.877 1248.5 642.941 1249.52 639.485 1251.57C636.029 1253.62 633.309 1256.46 631.325 1260.11C629.405 1263.7 628.445 1267.79 628.445 1272.4ZM616.445 1272.4C616.445 1267.34 617.309 1262.7 619.037 1258.48C620.765 1254.26 623.197 1250.61 626.333 1247.54C629.533 1244.4 633.245 1241.97 637.469 1240.24C641.757 1238.51 646.365 1237.65 651.293 1237.65C656.349 1237.65 660.989 1238.51 665.213 1240.24C669.437 1241.97 673.117 1244.4 676.253 1247.54C679.453 1250.61 681.917 1254.26 683.645 1258.48C685.373 1262.7 686.237 1267.34 686.237 1272.4C686.237 1277.39 685.373 1282.03 683.645 1286.32C681.917 1290.61 679.485 1294.32 676.349 1297.46C673.213 1300.59 669.501 1303.06 665.213 1304.85C660.989 1306.58 656.349 1307.44 651.293 1307.44C646.301 1307.44 641.661 1306.58 637.373 1304.85C633.085 1303.06 629.373 1300.59 626.237 1297.46C623.165 1294.32 620.765 1290.61 619.037 1286.32C617.309 1282.03 616.445 1277.39 616.445 1272.4ZM746.31 1238.8H757.446V1309.36L708.39 1260.88V1306H697.254V1235.44L746.31 1283.92V1238.8ZM776.763 1284.4C778.235 1286.96 779.803 1289.23 781.467 1291.22C783.195 1293.14 785.083 1294.64 787.131 1295.73C789.179 1296.75 791.483 1297.26 794.043 1297.26C797.115 1297.26 799.611 1296.43 801.531 1294.77C803.451 1293.1 804.411 1290.96 804.411 1288.34C804.411 1285.84 803.803 1283.86 802.587 1282.38C801.371 1280.85 799.675 1279.57 797.499 1278.54C795.387 1277.46 792.923 1276.4 790.107 1275.38C788.443 1274.8 786.587 1274.03 784.539 1273.07C782.491 1272.05 780.539 1270.8 778.683 1269.33C776.827 1267.79 775.291 1265.94 774.075 1263.76C772.859 1261.52 772.251 1258.83 772.251 1255.7C772.251 1252.11 773.179 1248.98 775.035 1246.29C776.891 1243.54 779.387 1241.42 782.523 1239.95C785.723 1238.42 789.339 1237.65 793.371 1237.65C797.339 1237.65 800.795 1238.35 803.739 1239.76C806.683 1241.17 809.147 1242.96 811.131 1245.14C813.179 1247.31 814.779 1249.58 815.931 1251.95L806.715 1257.14C805.883 1255.47 804.827 1253.94 803.547 1252.53C802.267 1251.06 800.763 1249.9 799.035 1249.07C797.371 1248.18 795.419 1247.73 793.179 1247.73C790.043 1247.73 787.739 1248.46 786.267 1249.94C784.795 1251.34 784.059 1253.01 784.059 1254.93C784.059 1256.66 784.571 1258.22 785.595 1259.63C786.683 1260.98 788.347 1262.26 790.587 1263.47C792.827 1264.69 795.739 1265.94 799.323 1267.22C801.307 1267.92 803.291 1268.82 805.275 1269.9C807.323 1270.99 809.179 1272.37 810.843 1274.03C812.507 1275.63 813.819 1277.52 814.779 1279.7C815.803 1281.87 816.315 1284.43 816.315 1287.38C816.315 1290.51 815.707 1293.33 814.491 1295.82C813.275 1298.32 811.611 1300.43 809.499 1302.16C807.387 1303.82 804.987 1305.1 802.299 1306C799.675 1306.96 796.923 1307.44 794.043 1307.44C790.075 1307.44 786.395 1306.67 783.003 1305.14C779.675 1303.54 776.763 1301.42 774.267 1298.8C771.771 1296.18 769.787 1293.33 768.315 1290.26L776.763 1284.4ZM827.461 1238.8H838.789V1283.44C838.789 1287.6 839.877 1290.96 842.053 1293.52C844.293 1296.02 847.589 1297.26 851.941 1297.26C856.229 1297.26 859.493 1296.02 861.733 1293.52C863.973 1290.96 865.093 1287.6 865.093 1283.44V1238.8H876.421V1283.92C876.421 1287.63 875.813 1290.96 874.597 1293.9C873.445 1296.78 871.781 1299.25 869.605 1301.3C867.429 1303.34 864.837 1304.91 861.829 1306C858.821 1307.09 855.525 1307.63 851.941 1307.63C848.357 1307.63 845.061 1307.09 842.053 1306C839.045 1304.91 836.421 1303.34 834.181 1301.3C832.005 1299.25 830.341 1296.78 829.189 1293.9C828.037 1290.96 827.461 1287.63 827.461 1283.92V1238.8ZM890.941 1238.8H902.269V1295.82H928.957V1306H890.941V1238.8ZM923.69 1249.26V1238.8H970.538V1249.26H952.778V1306H941.354V1249.26H923.69ZM982.164 1272.4C982.164 1277.01 983.124 1281.14 985.044 1284.78C987.028 1288.37 989.748 1291.18 993.204 1293.23C996.66 1295.28 1000.6 1296.3 1005.01 1296.3C1009.49 1296.3 1013.43 1295.28 1016.82 1293.23C1020.28 1291.18 1022.96 1288.37 1024.88 1284.78C1026.87 1281.14 1027.86 1277.01 1027.86 1272.4C1027.86 1267.79 1026.9 1263.7 1024.98 1260.11C1023.06 1256.46 1020.37 1253.62 1016.92 1251.57C1013.52 1249.52 1009.56 1248.5 1005.01 1248.5C1000.6 1248.5 996.66 1249.52 993.204 1251.57C989.748 1253.62 987.028 1256.46 985.044 1260.11C983.124 1263.7 982.164 1267.79 982.164 1272.4ZM970.164 1272.4C970.164 1267.34 971.028 1262.7 972.756 1258.48C974.484 1254.26 976.916 1250.61 980.052 1247.54C983.252 1244.4 986.964 1241.97 991.188 1240.24C995.476 1238.51 1000.08 1237.65 1005.01 1237.65C1010.07 1237.65 1014.71 1238.51 1018.93 1240.24C1023.16 1241.97 1026.84 1244.4 1029.97 1247.54C1033.17 1250.61 1035.64 1254.26 1037.36 1258.48C1039.09 1262.7 1039.96 1267.34 1039.96 1272.4C1039.96 1277.39 1039.09 1282.03 1037.36 1286.32C1035.64 1290.61 1033.2 1294.32 1030.07 1297.46C1026.93 1300.59 1023.22 1303.06 1018.93 1304.85C1014.71 1306.58 1010.07 1307.44 1005.01 1307.44C1000.02 1307.44 995.38 1306.58 991.092 1304.85C986.804 1303.06 983.092 1300.59 979.956 1297.46C976.884 1294.32 974.484 1290.61 972.756 1286.32C971.028 1282.03 970.164 1277.39 970.164 1272.4ZM1064.8 1273.94H1077.08L1099.84 1306H1086.2L1064.8 1273.94ZM1050.97 1238.8H1062.3V1306H1050.97V1238.8ZM1057.69 1248.59V1238.8H1071.71C1076.57 1238.8 1080.8 1239.66 1084.38 1241.39C1088.03 1243.12 1090.84 1245.55 1092.83 1248.69C1094.81 1251.76 1095.8 1255.41 1095.8 1259.63C1095.8 1263.86 1094.81 1267.54 1092.83 1270.67C1090.84 1273.81 1088.03 1276.24 1084.38 1277.97C1080.8 1279.7 1076.57 1280.56 1071.71 1280.56H1057.69V1271.25H1071.23C1073.79 1271.25 1076.03 1270.8 1077.95 1269.9C1079.93 1269.01 1081.47 1267.73 1082.56 1266.06C1083.64 1264.34 1084.19 1262.29 1084.19 1259.92C1084.19 1257.49 1083.64 1255.44 1082.56 1253.78C1081.47 1252.11 1079.93 1250.83 1077.95 1249.94C1076.03 1249.04 1073.79 1248.59 1071.23 1248.59H1057.69ZM1108.07 1238.8H1119.49V1306H1108.07V1238.8ZM1142.57 1288.72L1144.68 1279.12H1175.88L1178.09 1288.72H1142.57ZM1160.14 1257.81L1149.58 1282.48L1149.38 1284.98L1140.07 1306H1127.3L1160.14 1235.06L1192.97 1306H1180.2L1171.08 1285.55L1170.79 1282.77L1160.14 1257.81ZM1229.57 1238.8H1241.09V1306H1229.57V1238.8ZM1251.26 1306H1236.57V1295.34H1250.97C1254.3 1295.34 1257.37 1294.86 1260.19 1293.9C1263.01 1292.94 1265.44 1291.5 1267.49 1289.58C1269.6 1287.66 1271.23 1285.26 1272.38 1282.38C1273.6 1279.5 1274.21 1276.18 1274.21 1272.4C1274.21 1268.62 1273.6 1265.3 1272.38 1262.42C1271.23 1259.54 1269.6 1257.14 1267.49 1255.22C1265.44 1253.3 1263.01 1251.86 1260.19 1250.9C1257.37 1249.94 1254.3 1249.46 1250.97 1249.46H1236.57V1238.8H1251.26C1258.11 1238.8 1264.13 1240.21 1269.31 1243.02C1274.49 1245.78 1278.53 1249.68 1281.41 1254.74C1284.35 1259.73 1285.82 1265.62 1285.82 1272.4C1285.82 1279.18 1284.35 1285.1 1281.41 1290.16C1278.53 1295.15 1274.49 1299.06 1269.31 1301.87C1264.13 1304.62 1258.11 1306 1251.26 1306ZM1303.89 1306V1296.02H1337.77V1306H1303.89ZM1303.89 1248.78V1238.8H1337.77V1248.78H1303.89ZM1303.89 1274.9V1265.1H1335.85V1274.9H1303.89ZM1296.88 1238.8H1308.01V1306H1296.88V1238.8ZM1387.51 1306V1296.02H1421.4V1306H1387.51ZM1387.51 1248.78V1238.8H1421.4V1248.78H1387.51ZM1387.51 1274.9V1265.1H1419.48V1274.9H1387.51ZM1380.5 1238.8H1391.64V1306H1380.5V1238.8ZM1435.35 1238.8H1446.68V1306H1435.35V1238.8ZM1442.07 1248.78V1238.8H1455.6C1460.47 1238.8 1464.69 1239.66 1468.28 1241.39C1471.92 1243.06 1474.74 1245.46 1476.72 1248.59C1478.71 1251.66 1479.7 1255.34 1479.7 1259.63C1479.7 1263.92 1478.71 1267.63 1476.72 1270.77C1474.74 1273.9 1471.92 1276.34 1468.28 1278.06C1464.69 1279.73 1460.47 1280.56 1455.6 1280.56H1442.07V1270.58H1455.6C1459.51 1270.58 1462.64 1269.65 1465.01 1267.79C1467.38 1265.94 1468.56 1263.22 1468.56 1259.63C1468.56 1256.05 1467.38 1253.36 1465.01 1251.57C1462.64 1249.71 1459.51 1248.78 1455.6 1248.78H1442.07ZM1490.85 1238.8H1502.27V1306H1490.85V1238.8ZM1520.16 1238.8H1531.59L1521.89 1261.84H1514.6L1520.16 1238.8ZM1550.2 1284.4C1551.67 1286.96 1553.24 1289.23 1554.9 1291.22C1556.63 1293.14 1558.52 1294.64 1560.57 1295.73C1562.62 1296.75 1564.92 1297.26 1567.48 1297.26C1570.55 1297.26 1573.05 1296.43 1574.97 1294.77C1576.89 1293.1 1577.85 1290.96 1577.85 1288.34C1577.85 1285.84 1577.24 1283.86 1576.02 1282.38C1574.81 1280.85 1573.11 1279.57 1570.94 1278.54C1568.82 1277.46 1566.36 1276.4 1563.54 1275.38C1561.88 1274.8 1560.02 1274.03 1557.98 1273.07C1555.93 1272.05 1553.98 1270.8 1552.12 1269.33C1550.26 1267.79 1548.73 1265.94 1547.51 1263.76C1546.3 1261.52 1545.69 1258.83 1545.69 1255.7C1545.69 1252.11 1546.62 1248.98 1548.47 1246.29C1550.33 1243.54 1552.82 1241.42 1555.96 1239.95C1559.16 1238.42 1562.78 1237.65 1566.81 1237.65C1570.78 1237.65 1574.23 1238.35 1577.18 1239.76C1580.12 1241.17 1582.58 1242.96 1584.57 1245.14C1586.62 1247.31 1588.22 1249.58 1589.37 1251.95L1580.15 1257.14C1579.32 1255.47 1578.26 1253.94 1576.98 1252.53C1575.7 1251.06 1574.2 1249.9 1572.47 1249.07C1570.81 1248.18 1568.86 1247.73 1566.62 1247.73C1563.48 1247.73 1561.18 1248.46 1559.7 1249.94C1558.23 1251.34 1557.5 1253.01 1557.5 1254.93C1557.5 1256.66 1558.01 1258.22 1559.03 1259.63C1560.12 1260.98 1561.78 1262.26 1564.02 1263.47C1566.26 1264.69 1569.18 1265.94 1572.76 1267.22C1574.74 1267.92 1576.73 1268.82 1578.71 1269.9C1580.76 1270.99 1582.62 1272.37 1584.28 1274.03C1585.94 1275.63 1587.26 1277.52 1588.22 1279.7C1589.24 1281.87 1589.75 1284.43 1589.75 1287.38C1589.75 1290.51 1589.14 1293.33 1587.93 1295.82C1586.71 1298.32 1585.05 1300.43 1582.94 1302.16C1580.82 1303.82 1578.42 1305.1 1575.74 1306C1573.11 1306.96 1570.36 1307.44 1567.48 1307.44C1563.51 1307.44 1559.83 1306.67 1556.44 1305.14C1553.11 1303.54 1550.2 1301.42 1547.7 1298.8C1545.21 1296.18 1543.22 1293.33 1541.75 1290.26L1550.2 1284.4Z" fill="#f2f2f2"/>
</svg>
