<svg width="2014" height="839" viewBox="0 0 2014 839" fill="none" xmlns="http://www.w3.org/2000/svg">
<path d="M328.5 667.07V461.07C350 471.07 342.5 468.57 369 479.57C395.5 490.57 409.333 492.737 422.5 496.07C423 513.237 420.4 555.87 406 589.07C391.6 622.27 348.333 654.904 328.5 667.07Z" fill="#E56E1E"/>
<path d="M328 667.07V461.07C306.513 471.07 314.008 468.57 287.524 479.57C261.04 490.57 247.215 492.737 234.057 496.07C233.557 513.237 236.155 555.87 250.547 589.07C264.938 622.27 308.179 654.904 328 667.07Z" fill="#F5B345"/>
<path d="M328 838.57V690.07C356.333 692.904 431.5 671.07 468 632.07C504.5 593.07 521 528.57 520 510.07L608.5 491.07L607 540.07L661 567.57L631 656.07L570.5 643.57C565.167 651.737 554.4 668.37 554 669.57C553.6 670.77 540.167 686.737 533.5 694.57L561 749.57L486 802.57L441 757.07C434.333 759.737 420.3 765.37 417.5 766.57C414.7 767.77 393.667 773.737 383.5 776.57L374 838.57H328Z" fill="#191F2B"/>
<path d="M327.5 690.641V690.07C340.374 691.483 357.032 693.428 327.5 690.641V838.57H280.5L271.5 777.07C261.167 774.57 240 769.27 238 768.07C236 766.87 220.834 760.904 213.5 758.07L169.5 803.57C144.834 786.237 95.2004 750.97 94.0004 748.57C92.8004 746.17 111.167 711.57 120.5 694.57C113.667 685.904 99.2005 667.67 96.0005 664.07C92.8005 660.47 86.3338 649.904 83.5005 645.07C64.5005 648.57 26.2005 655.47 25.0005 655.07C23.8005 654.67 111.167 608.904 155.001 586.07C166.334 604.237 195.8 644.27 223 659.07C257 677.57 274.5 685.57 321.5 690.07C323.684 690.279 325.68 690.469 327.5 690.641Z" fill="#313C50"/>
<path d="M328 298.953L328 389.453L321.5 389.451L49.0005 401.453C40.9577 361.06 44.2824 318.562 54.0362 278.548C63.79 238.534 82.1751 201.137 107.903 168.976C133.632 136.815 166.081 110.669 202.978 92.3692C239.875 74.0694 280.327 64.0586 321.5 63.0381C323.668 62.9844 325.834 62.9556 328 62.9518C328 62.4531 328 146.453 328 146.453L328 298.953Z" fill="#F8B54A"/>
<path d="M327.837 298.954L327.775 389.455L334.275 389.458L606.769 401.646C614.839 361.258 611.543 318.758 601.817 278.737C592.09 238.716 573.731 201.305 548.024 169.127C522.318 136.948 489.886 110.779 453.001 92.4542C416.117 74.129 375.671 64.0904 334.498 63.0418C332.331 62.9866 330.164 62.9563 327.999 62.951C327.998 62.4523 327.941 146.453 327.941 146.453L327.837 298.954Z" fill="#ED972A"/>
<path d="M328 422.57V364.57L618.5 366.07C623.667 366.237 636.5 369.07 646.5 379.07C656.5 389.07 657 412.237 656 422.57H328Z" fill="#E56E1E"/>
<path d="M328 422.07V364.07L37.8163 365.57C32.6553 365.737 19.8359 368.57 9.8468 378.57C-0.142303 388.57 -0.641754 411.737 0.357147 422.07H328Z" fill="#EF9131"/>
<path d="M474.5 100.57C473.7 98.1703 446.5 83.5703 433 76.5703V80.0703V182.07C434.5 187.237 441 197.67 455 198.07C469 198.47 475.167 184.57 476.5 177.57C476.167 152.904 475.3 102.97 474.5 100.57Z" fill="#E5741C"/>
<path d="M180.999 100.071C181.799 97.6706 209 83.0704 222.5 76.0703V79.5704V181.572C221 186.738 214.5 197.172 200.5 197.572C186.5 197.972 180.333 184.072 178.999 177.072C179.333 152.405 180.199 102.471 180.999 100.071Z" fill="#F19333"/>
<path d="M381.5 158.57H328V44.0699H368C370.667 43.9033 376.5 44.2699 378.5 47.0699C380.5 49.8699 381 52.9033 381 54.0699L381.5 158.57Z" fill="#E66F21"/>
<path d="M381.5 158.57H328V44.0699H368C370.667 43.9033 376.5 44.2699 378.5 47.0699C380.5 49.8699 381 52.9033 381 54.0699L381.5 158.57Z" fill="#E66F21"/>
<path d="M274.502 158.6H328V44.1041H288.001C285.335 43.9375 279.502 44.3041 277.502 47.104C275.502 49.9039 275.002 52.9372 275.002 54.1038L274.502 158.6Z" fill="#F19333"/>
<path d="M860.706 286.677L850.668 372H808.126L835.133 196.335L906.355 298.388L977.816 196.335L1004.82 372H962.281L952.243 286.677L906.355 356.465L860.706 286.677ZM1056.84 339.735L1059.7 308.904H1142.64L1145.27 339.735H1056.84ZM1100.57 266.123L1077.15 320.137L1079.06 328.98L1058.27 372H1012.62L1100.57 194.184L1188.76 372H1142.88L1122.8 330.653L1124.23 320.376L1100.57 266.123ZM1172.76 240.789V204.7H1305.17V240.789H1259.04V372H1218.65V240.789H1172.76ZM1344.78 288.35C1344.78 298.229 1346.69 306.992 1350.51 314.64C1354.5 322.129 1359.99 328.024 1367.01 332.326C1374.18 336.628 1382.54 338.779 1392.1 338.779C1401.5 338.779 1409.71 336.628 1416.72 332.326C1423.89 328.024 1429.38 322.129 1433.21 314.64C1437.19 306.992 1439.18 298.229 1439.18 288.35C1439.18 278.471 1437.27 269.788 1433.45 262.299C1429.62 254.651 1424.21 248.676 1417.2 244.374C1410.18 240.072 1401.82 237.921 1392.1 237.921C1382.54 237.921 1374.18 240.072 1367.01 244.374C1359.99 248.676 1354.5 254.651 1350.51 262.299C1346.69 269.788 1344.78 278.471 1344.78 288.35ZM1302 288.35C1302 275.444 1304.23 263.653 1308.69 252.978C1313.31 242.303 1319.68 233.061 1327.81 225.254C1335.94 217.447 1345.5 211.472 1356.49 207.329C1367.48 203.027 1379.35 200.876 1392.1 200.876C1405.01 200.876 1416.88 203.027 1427.71 207.329C1438.71 211.472 1448.27 217.447 1456.39 225.254C1464.52 233.061 1470.81 242.303 1475.27 252.978C1479.73 263.653 1481.96 275.444 1481.96 288.35C1481.96 301.256 1479.73 313.126 1475.27 323.961C1470.97 334.796 1464.76 344.196 1456.63 352.163C1448.66 360.13 1439.18 366.344 1428.19 370.805C1417.2 375.107 1405.17 377.258 1392.1 377.258C1378.88 377.258 1366.77 375.107 1355.77 370.805C1344.78 366.344 1335.22 360.13 1327.09 352.163C1319.13 344.196 1312.91 334.796 1308.45 323.961C1304.15 313.126 1302 301.256 1302 288.35ZM1623.28 204.7H1662.24V380.365L1546.56 277.834V372H1507.85V196.335L1623.28 298.866V204.7ZM1791.53 204.7H1837.89L1779.34 303.885V372H1738.23V304.124L1679.67 204.7H1726.04L1758.78 267.557L1791.53 204.7Z" fill="#E56E1E"/>
<path d="M836.089 658.206C839.435 664.261 843.179 669.519 847.322 673.98C851.624 678.441 856.245 681.867 861.184 684.257C866.283 686.647 871.62 687.842 877.197 687.842C883.092 687.842 887.952 686.408 891.776 683.54C895.6 680.513 897.512 676.45 897.512 671.351C897.512 667.049 896.397 663.623 894.166 661.074C891.935 658.365 888.35 655.816 883.411 653.426C878.472 651.036 871.939 648.327 863.813 645.3C859.83 643.866 855.209 641.874 849.951 639.325C844.852 636.776 839.993 633.509 835.372 629.526C830.751 625.383 826.927 620.444 823.9 614.708C820.873 608.813 819.359 601.722 819.359 593.437C819.359 583.558 821.908 575.034 827.007 567.864C832.265 560.694 839.276 555.277 848.039 551.612C856.962 547.788 866.84 545.876 877.675 545.876C888.828 545.876 898.468 547.708 906.594 551.373C914.879 555.038 921.731 559.658 927.148 565.235C932.565 570.812 936.708 576.468 939.576 582.204L908.745 599.412C906.355 595.429 903.567 592.003 900.38 589.135C897.353 586.108 893.927 583.797 890.103 582.204C886.438 580.451 882.455 579.575 878.153 579.575C872.417 579.575 868.035 580.85 865.008 583.399C861.981 585.789 860.467 588.816 860.467 592.481C860.467 596.305 861.901 599.651 864.769 602.519C867.796 605.387 872.019 608.016 877.436 610.406C883.013 612.796 889.705 615.345 897.512 618.054C903.407 620.285 908.904 622.914 914.003 625.941C919.102 628.809 923.563 632.314 927.387 636.457C931.37 640.6 934.477 645.38 936.708 650.797C938.939 656.214 940.054 662.428 940.054 669.439C940.054 677.884 938.301 685.452 934.796 692.144C931.45 698.677 926.829 704.174 920.934 708.635C915.198 713.096 908.586 716.442 901.097 718.673C893.768 721.063 886.199 722.258 878.392 722.258C867.557 722.258 857.44 720.346 848.039 716.522C838.798 712.539 830.751 707.201 823.9 700.509C817.049 693.817 811.711 686.488 807.887 678.521L836.089 658.206ZM993.829 717V683.779H1078.2V717H993.829ZM993.829 582.921V549.7H1078.2V582.921H993.829ZM993.829 645.3V612.796H1073.42V645.3H993.829ZM967.061 549.7H1005.78V717H967.061V549.7ZM1152.89 641.237H1194.72L1247.06 717H1199.74L1152.89 641.237ZM1111.07 549.7H1151.46V717H1111.07V549.7ZM1136.4 583.877V549.7H1172.01C1186.35 549.7 1198.3 552.01 1207.86 556.631C1217.42 561.252 1224.67 567.705 1229.61 575.99C1234.55 584.116 1237.02 593.596 1237.02 604.431C1237.02 615.106 1234.55 624.587 1229.61 632.872C1224.67 640.998 1217.42 647.371 1207.86 651.992C1198.3 656.613 1186.35 658.923 1172.01 658.923H1136.4V627.614H1169.14C1174.56 627.614 1179.18 626.817 1183.01 625.224C1186.99 623.471 1190.02 621.002 1192.09 617.815C1194.16 614.469 1195.2 610.486 1195.2 605.865C1195.2 601.244 1194.16 597.341 1192.09 594.154C1190.02 590.808 1186.99 588.259 1183.01 586.506C1179.18 584.753 1174.56 583.877 1169.14 583.877H1136.4ZM1335.84 649.602L1376.71 549.7H1424.03L1335.84 727.516L1247.89 549.7H1294.97L1335.84 649.602ZM1441.56 549.7H1482.67V717H1441.56V549.7ZM1552.53 633.35C1552.53 643.547 1554.84 652.39 1559.46 659.879C1564.08 667.208 1570.14 672.785 1577.63 676.609C1585.27 680.433 1593.64 682.345 1602.72 682.345C1610.69 682.345 1617.7 681.309 1623.75 679.238C1629.81 677.167 1635.22 674.458 1640 671.112C1644.78 667.766 1649.01 664.181 1652.67 660.357V703.855C1645.98 709.113 1638.65 713.256 1630.68 716.283C1622.72 719.31 1612.6 720.824 1600.33 720.824C1586.95 720.824 1574.6 718.753 1563.29 714.61C1551.97 710.467 1542.25 704.492 1534.13 696.685C1526 688.878 1519.71 679.636 1515.25 668.961C1510.79 658.286 1508.55 646.415 1508.55 633.35C1508.55 620.285 1510.79 608.414 1515.25 597.739C1519.71 587.064 1526 577.822 1534.13 570.015C1542.25 562.208 1551.97 556.233 1563.29 552.09C1574.6 547.947 1586.95 545.876 1600.33 545.876C1612.6 545.876 1622.72 547.39 1630.68 550.417C1638.65 553.444 1645.98 557.587 1652.67 562.845V606.343C1649.01 602.519 1644.78 598.934 1640 595.588C1635.22 592.083 1629.81 589.374 1623.75 587.462C1617.7 585.391 1610.69 584.355 1602.72 584.355C1593.64 584.355 1585.27 586.267 1577.63 590.091C1570.14 593.915 1564.08 599.492 1559.46 606.821C1554.84 614.15 1552.53 622.993 1552.53 633.35ZM1585.99 705.528L1612.28 706.245L1591.73 735.403C1593 735.084 1594.36 734.845 1595.79 734.686C1597.22 734.686 1598.74 734.686 1600.33 734.686C1603.52 734.686 1606.78 735.483 1610.13 737.076C1613.64 738.829 1616.5 741.378 1618.73 744.724C1621.12 748.229 1622.32 752.611 1622.32 757.869C1622.32 763.605 1620.73 768.385 1617.54 772.209C1614.35 776.192 1610.37 779.14 1605.59 781.052C1600.81 782.964 1595.95 783.92 1591.01 783.92C1584.32 783.92 1578.26 783.203 1572.85 781.769C1567.59 780.494 1562.17 778.104 1556.59 774.599L1567.35 758.108C1570.38 760.339 1573.64 761.852 1577.15 762.649C1580.81 763.605 1583.84 764.083 1586.23 764.083C1590.37 764.083 1593.56 763.366 1595.79 761.932C1598.02 760.657 1599.14 758.586 1599.14 755.718C1599.14 752.691 1597.62 750.619 1594.59 749.504C1591.73 748.548 1588.46 748.07 1584.8 748.07C1583.68 748.07 1581.13 748.229 1577.15 748.548C1573.16 749.026 1569.1 750.141 1564.96 751.894L1585.99 705.528ZM1718.92 633.35C1718.92 643.229 1720.83 651.992 1724.65 659.64C1728.64 667.129 1734.13 673.024 1741.14 677.326C1748.31 681.628 1756.68 683.779 1766.24 683.779C1775.64 683.779 1783.84 681.628 1790.85 677.326C1798.02 673.024 1803.52 667.129 1807.35 659.64C1811.33 651.992 1813.32 643.229 1813.32 633.35C1813.32 623.471 1811.41 614.788 1807.58 607.299C1803.76 599.651 1798.34 593.676 1791.33 589.374C1784.32 585.072 1775.96 582.921 1766.24 582.921C1756.68 582.921 1748.31 585.072 1741.14 589.374C1734.13 593.676 1728.64 599.651 1724.65 607.299C1720.83 614.788 1718.92 623.471 1718.92 633.35ZM1676.13 633.35C1676.13 620.444 1678.37 608.653 1682.83 597.978C1687.45 587.303 1693.82 578.061 1701.95 570.254C1710.07 562.447 1719.63 556.472 1730.63 552.329C1741.62 548.027 1753.49 545.876 1766.24 545.876C1779.14 545.876 1791.01 548.027 1801.85 552.329C1812.84 556.472 1822.4 562.447 1830.53 570.254C1838.65 578.061 1844.95 587.303 1849.41 597.978C1853.87 608.653 1856.1 620.444 1856.1 633.35C1856.1 646.256 1853.87 658.126 1849.41 668.961C1845.11 679.796 1838.89 689.196 1830.77 697.163C1822.8 705.13 1813.32 711.344 1802.33 715.805C1791.33 720.107 1779.3 722.258 1766.24 722.258C1753.01 722.258 1740.9 720.107 1729.91 715.805C1718.92 711.344 1709.36 705.13 1701.23 697.163C1693.26 689.196 1687.05 679.796 1682.59 668.961C1678.29 658.126 1676.13 646.256 1676.13 633.35ZM1900.39 658.206C1903.73 664.261 1907.48 669.519 1911.62 673.98C1915.92 678.441 1920.54 681.867 1925.48 684.257C1930.58 686.647 1935.92 687.842 1941.49 687.842C1947.39 687.842 1952.25 686.408 1956.07 683.54C1959.9 680.513 1961.81 676.45 1961.81 671.351C1961.81 667.049 1960.69 663.623 1958.46 661.074C1956.23 658.365 1952.65 655.816 1947.71 653.426C1942.77 651.036 1936.24 648.327 1928.11 645.3C1924.13 643.866 1919.51 641.874 1914.25 639.325C1909.15 636.776 1904.29 633.509 1899.67 629.526C1895.05 625.383 1891.22 620.444 1888.2 614.708C1885.17 608.813 1883.66 601.722 1883.66 593.437C1883.66 583.558 1886.21 575.034 1891.3 567.864C1896.56 560.694 1903.57 555.277 1912.34 551.612C1921.26 547.788 1931.14 545.876 1941.97 545.876C1953.13 545.876 1962.76 547.708 1970.89 551.373C1979.18 555.038 1986.03 559.658 1991.44 565.235C1996.86 570.812 2001 576.468 2003.87 582.204L1973.04 599.412C1970.65 595.429 1967.86 592.003 1964.68 589.135C1961.65 586.108 1958.22 583.797 1954.4 582.204C1950.74 580.451 1946.75 579.575 1942.45 579.575C1936.71 579.575 1932.33 580.85 1929.3 583.399C1926.28 585.789 1924.76 588.816 1924.76 592.481C1924.76 596.305 1926.2 599.651 1929.07 602.519C1932.09 605.387 1936.32 608.016 1941.73 610.406C1947.31 612.796 1954 615.345 1961.81 618.054C1967.7 620.285 1973.2 622.914 1978.3 625.941C1983.4 628.809 1987.86 632.314 1991.68 636.457C1995.67 640.6 1998.77 645.38 2001 650.797C2003.24 656.214 2004.35 662.428 2004.35 669.439C2004.35 677.884 2002.6 685.452 1999.09 692.144C1995.75 698.677 1991.13 704.174 1985.23 708.635C1979.49 713.096 1972.88 716.442 1965.39 718.673C1958.06 721.063 1950.5 722.258 1942.69 722.258C1931.85 722.258 1921.74 720.346 1912.34 716.522C1903.09 712.539 1895.05 707.201 1888.2 700.509C1881.35 693.817 1876.01 686.488 1872.18 678.521L1900.39 658.206Z" fill="#191F2B"/>
</svg>
